PathFileType	4	(X/Y/Z)	walk-thru1-3-TP.trc
DataRate	CameraRate	NumFrames	NumMarkers	Units	OrigDataRate	OrigDataStartFrame	OrigNumFrames
120.00	120.00	       4	60	mm	120.00	1	       529
Frame#	Time	Top.Head			Front.Head			Rear.Head			Jaw			C7			R.Clavicle			L.Clavicle			R.Shoulder			L.Shoulder			R.Scapula			L.Scapula			R.Scap.Inf			R.Biceps.Lateral			R.Elbow			R.Elbow.Medial			R.Forearm			R.Ulna			R.Radius			R.Wrist			R.Thumb.M1			R.Thumb.M2			R.Thumb.M3			R.Finger3.M1			R.Finger3.M2			R.Finger3.M3			L.Biceps.Lateral			L.Elbow			L.Elbow.Medial			L.Forearm			L.Ulna			L.Radius			L.Wrist			L.Thumb.M1			L.Thumb.M2			L.Thumb.M3			L.Finger3.M1			L.Finger3.M2			L.Finger3.M3			V.Sacral			R.ASIS			L.ASIS			R.Thigh			R.Thigh.Front			R.Knee			R.Knee.Medial			R.Shank			R.Ankle			R.Ankle.Medial			R.Heel			R.Toe			R.MedFoot			L.Thigh			L.Knee			L.Knee.Medial			L.Shank			L.Ankle			L.Ankle.Medial			L.Heel			L.Toe			L.MedFoot			V_mid_ASIS			V_R_Knee_JC			V_L_Knee_JC			V_R_Elbow_JC			V_L_Elbow_JC			V_R_Ankle_JC			V_L_Ankle_JC			V_R_Wrist_JC			V_L_Wrist_JC			V_R_ScaTrpz_1stMC_JC			V_R_1stMC_1stPP_JC			V_R_1stPP_1stDP_JC			V_R_LunCap_3rdMC_JC			V_R_3rdMC_3rdPP_JC			V_R_3rdPP_3rdMP_JC			V_R_3rdMP_3rdDP_JC			V_L_ScaTrpz_1stMC_JC			V_L_1stMC_1stPP_JC			V_L_1stPP_1stDP_JC			V_L_LunCap_3rdMC_JC			V_L_3rdMC_3rdPP_JC			V_L_3rdPP_3rdMP_JC			V_L_3rdMP_3rdPP_JC			V_ROOT_JC			V_R_Hip_JC			V_L_Hip_JC			V_R_GlenHum_JC			V_L_GlenHum_JC			V_ForeHead_Ctr			V_Vertex			V_Sagit_Lambdoid_Suture			V_R_FrontoTemp			V_L_FrontoTemporal			V_R_ParietalOccip			V_L_ParietalOcciptal			V_R_Temporal			V_L_Temporal			V_mid_FrontRearHead			V_mid_RLGlenHumCtrs			V_C7_vert			V_C1_vert			V_Mid_Hip			
		X1	Y1	Z1	X2	Y2	Z2	X3	Y3	Z3	X4	Y4	Z4	X5	Y5	Z5	X6	Y6	Z6	X7	Y7	Z7	X8	Y8	Z8	X9	Y9	Z9	X10	Y10	Z10	X11	Y11	Z11	X12	Y12	Z12	X13	Y13	Z13	X14	Y14	Z14	X15	Y15	Z15	X16	Y16	Z16	X17	Y17	Z17	X18	Y18	Z18	X19	Y19	Z19	X20	Y20	Z20	X21	Y21	Z21	X22	Y22	Z22	X23	Y23	Z23	X24	Y24	Z24	X25	Y25	Z25	X26	Y26	Z26	X27	Y27	Z27	X28	Y28	Z28	X29	Y29	Z29	X30	Y30	Z30	X31	Y31	Z31	X32	Y32	Z32	X33	Y33	Z33	X34	Y34	Z34	X35	Y35	Z35	X36	Y36	Z36	X37	Y37	Z37	X38	Y38	Z38	X39	Y39	Z39	X40	Y40	Z40	X41	Y41	Z41	X42	Y42	Z42	X43	Y43	Z43	X44	Y44	Z44	X45	Y45	Z45	X46	Y46	Z46	X47	Y47	Z47	X48	Y48	Z48	X49	Y49	Z49	X50	Y50	Z50	X51	Y51	Z51	X52	Y52	Z52	X53	Y53	Z53	X54	Y54	Z54	X55	Y55	Z55	X56	Y56	Z56	X57	Y57	Z57	X58	Y58	Z58	X59	Y59	Z59	X60	Y60	Z60	

1	0.000	1570.05286	114.43124	1815.74341	1467.99915	95.69228	1705.08154	1695.20923	117.00549	1714.56628	1509.84180	95.38770	1538.39600	1705.13403	112.21622	1578.87720	1600.73572	217.21986	1480.87683	1602.64502	-10.31094	1492.50574	1635.29541	306.89310	1473.11304	1679.26550	-103.09008	1503.08264	1750.59399	200.58403	1492.26770	1760.45288	31.45171	1502.54309	1797.02612	209.79327	1403.36414	1666.71484	364.93439	1290.76538	1687.41589	382.66727	1134.69006	1712.26465	294.69858	1119.09412	1596.58533	320.69476	1030.79956	1611.99146	362.09097	926.90863	1553.08337	294.94681	906.03540	1549.00769	334.26996	857.69519	1538.96667	288.85818	874.71252	1501.21533	254.42635	835.52631	1461.81470	248.69711	813.23322	1499.80713	330.93887	793.33093	1480.42017	290.54370	743.19623	1493.86230	246.86650	718.59668	1718.93250	-167.05829	1361.62097	1751.56079	-219.65063	1191.22070	1788.09570	-148.85535	1172.55823	1688.49500	-207.38948	1081.02917	1746.00244	-228.58923	996.84851	1673.41187	-186.65274	939.41467	1688.91321	-221.32739	883.23657	1672.54346	-180.49133	870.23108	1673.92664	-146.17122	820.91687	1673.26184	-154.13467	760.35278	1681.37207	-247.15396	809.18793	1695.05371	-228.99229	754.03296	1717.15076	-208.17757	710.06787	1795.99768	86.27499	1102.71033	1694.43408	268.09695	1042.41248	1704.15454	-106.41219	1050.82483	1647.80750	212.64990	637.72534	1567.34436	125.78933	570.46503	1623.29871	179.99791	510.27902	1627.81885	66.41644	515.82843	1623.27710	130.60435	328.38147	1727.24854	149.52303	75.73241	1692.79053	55.13159	103.21065	1784.81616	92.49899	52.56658	1544.58582	104.77683	53.15480	1614.00427	69.68138	78.68046	1561.06116	-120.14822	683.21332	1519.07300	-110.46853	541.53162	1515.27917	9.64526	532.30688	1587.22961	-64.02624	352.16473	1774.15747	-89.15754	168.91678	1724.77283	2.88269	187.94638	1823.81372	-23.88777	176.69395	1628.28491	-44.49187	76.13241	1662.77417	-16.73822	113.82020																																																																																																																															
2	0.008	1565.75928	114.25973	1816.08838	1462.52881	98.04414	1706.73022	1689.54871	117.38335	1715.50476	1503.37122	98.00649	1537.93530	1699.99817	112.30709	1579.13611	1595.30627	217.24124	1480.48022	1598.45337	-9.87471	1492.29028	1629.37769	305.98370	1473.80981	1674.61548	-100.00514	1503.55042	1745.20288	199.68889	1492.00134	1754.57349	31.36125	1502.40027	1790.96716	209.29121	1403.38220	1660.84473	365.34775	1291.28442	1682.41235	383.37753	1136.26746	1707.14929	295.78445	1118.42761	1587.06958	322.82251	1032.00085	1605.92126	363.44064	928.00366	1547.62866	296.59766	906.30194	1541.47937	333.31039	858.62109	1532.58350	287.59152	875.69928	1492.48938	252.85988	835.98145	1454.27661	248.05232	813.96088	1492.22009	331.40430	795.04681	1472.83252	290.27277	743.28394	1485.88489	245.41985	719.37970	1712.91711	-166.92667	1360.35327	1746.37927	-219.15509	1190.29443	1783.34167	-149.18967	1172.16626	1683.62219	-206.31999	1080.59436	1741.59314	-227.85246	996.50183	1667.82813	-185.11899	938.77502	1683.71460	-221.24887	882.83228	1669.70471	-180.17514	871.42035	1666.20789	-146.17159	822.24945	1666.59863	-155.53606	760.14014	1675.53577	-244.08711	810.22443	1691.05359	-228.46712	753.03510	1712.50586	-207.96547	710.11115	1791.12952	86.77383	1102.69531	1691.19849	268.86603	1042.24548	1695.04614	-107.95631	1050.38855	1643.43091	212.38475	637.68524	1565.03455	126.56002	570.23749	1621.31067	180.70341	510.03311	1624.75867	68.50385	515.85437	1621.83191	131.65778	329.92764	1727.24854	149.52303	75.73241	1696.98376	53.33256	101.26749	1785.05286	91.92919	53.60379	1544.14075	104.29001	53.73338	1614.67017	70.41242	79.50745	1553.39624	-119.46797	685.29413	1509.92102	-109.07812	542.71960	1507.04016	12.22774	533.09583	1575.17578	-61.66079	351.04459	1755.57727	-87.92236	162.47298	1706.06641	2.96677	182.93658	1807.99500	-22.95094	169.89377	1607.27551	-44.88700	75.23611	1643.66980	-16.43601	112.01236																																																																																																																															
3	0.017	1560.71033	114.67519	1816.61475	1457.88562	96.47970	1706.38025	1683.53699	117.70872	1715.22449	1497.39111	98.63416	1538.55627	1695.08130	111.54984	1578.48999	1589.11206	217.59340	1481.21045	1593.43579	-9.02694	1492.31567	1624.47791	308.09106	1473.05835	1668.23975	-100.73672	1503.65088	1738.59058	200.25798	1491.42004	1748.91968	32.48737	1502.92908	1785.78015	208.74046	1403.47668	1655.98682	364.64886	1290.61133	1676.39209	384.16290	1136.11182	1701.79858	297.15314	1118.67053	1581.70581	322.50827	1032.70996	1598.45276	362.19095	928.02283	1540.42029	295.60968	907.13000	1535.43604	335.67969	858.92896	1526.96313	288.24646	876.52161	1487.46118	251.55696	836.93311	1447.14478	247.81073	816.21521	1483.47937	331.89822	795.25983	1465.74097	290.35675	746.55035	1478.86157	246.24817	721.62073	1707.98193	-167.20282	1360.64795	1742.31323	-219.49408	1190.78857	1778.41699	-149.26796	1172.25513	1678.60388	-207.00946	1081.13428	1737.09119	-227.35097	995.46484	1665.02063	-185.64081	938.15631	1679.92749	-221.37157	883.52258	1661.92249	-180.06476	873.02728	1659.90723	-146.95901	821.16449	1659.71521	-155.73582	758.53625	1670.52539	-243.57692	810.21106	1686.31079	-226.85378	753.05261	1708.37512	-207.99123	710.12982	1785.80078	86.11886	1103.31982	1683.41968	266.99484	1042.12280	1695.04797	-105.91879	1048.56201	1641.82813	212.85289	637.67950	1564.18970	126.08054	569.45361	1619.50854	180.93513	509.85284	1623.24280	68.55042	516.25732	1620.93103	131.29504	329.70935	1727.27551	149.39407	75.85619	1691.52100	55.23635	100.95294	1785.05286	91.92919	53.60379	1543.99072	104.03050	53.75313	1614.67554	70.24679	79.16782	1546.55896	-118.41601	686.13910	1503.82520	-107.85469	543.38062	1499.52893	12.40660	535.09247	1563.53040	-61.07825	351.15762	1739.07117	-88.17789	158.52223	1688.92310	5.30406	179.77260	1790.11060	-23.11604	163.35051	1587.93384	-44.71584	73.80513	1623.91003	-14.89268	109.26524																																																																																																																															
4	0.025	1554.77515	114.73373	1816.58875	1451.47693	97.63067	1706.07983	1677.98120	116.95895	1714.97522	1492.33496	99.01335	1538.63403	1689.44788	111.66084	1578.69519	1584.20276	218.02954	1480.67371	1587.99390	-9.51723	1492.22974	1618.82776	307.62234	1473.57996	1663.62695	-101.20918	1503.00842	1733.14551	199.65300	1491.56812	1743.86584	31.56030	1502.76379	1779.62488	209.32524	1404.06384	1650.46265	365.79468	1290.92896	1670.72754	384.13501	1135.96277	1696.26587	297.30396	1118.40295	1576.60132	323.09976	1033.21350	1592.31055	363.07996	928.31262	1533.33679	296.85501	909.00848	1526.94214	335.02142	860.07733	1518.25574	290.24036	877.21277	1479.69263	255.24020	840.20557	1441.45886	248.90671	816.40088	1477.00415	332.09848	796.90479	1458.12427	289.69061	747.73096	1471.22485	244.80969	722.47705	1702.25879	-166.78426	1360.78857	1736.46387	-218.69749	1189.54456	1773.23999	-148.67871	1172.26953	1673.82581	-207.11879	1081.54529	1731.64221	-227.62451	995.64624	1657.94446	-185.52092	939.00616	1675.85645	-221.94724	883.46301	1657.85107	-179.17587	875.12415	1657.16077	-146.44916	821.54590	1656.82458	-155.21866	758.90015	1667.20728	-243.80435	810.87347	1680.15747	-227.70764	751.42908	1702.69690	-208.17874	709.69794	1781.36963	86.97456	1103.22156	1685.40283	269.99319	1042.49829	1687.65271	-106.67923	1048.69128	1637.90198	214.73402	638.34521	1562.29846	126.52484	568.99731	1618.55969	180.91724	509.64752	1621.80566	68.87036	515.84790	1618.36182	131.58420	329.57132	1727.45801	149.53426	76.07478	1693.75781	54.55450	103.09667	1785.03711	91.94200	53.75991	1544.22461	104.62280	53.59778	1614.69177	70.23146	79.20587	1540.42542	-117.69130	686.36230	1493.92065	-107.07473	545.26141	1491.88794	13.87683	535.66864	1550.27283	-59.82594	350.23303	1722.28760	-87.86471	152.95107	1673.82532	4.28286	175.44077	1773.14185	-22.51542	155.57500	1568.27637	-43.78451	73.59849	1606.05139	-15.58354	108.16331																																																																																																																															
